ISO-10303-21;
HEADER;
/* Generated by software containing ST-Developer
 * from STEP Tools, Inc. (www.steptools.com) 
 */
/* OPTION: using custom renumber hook */

FILE_DESCRIPTION(
/* description */ ('STEP AP242 Edition 2',
'CAx-IF Rec.Pracs.---Representation and Presentation of Product Manufa
cturing Information (PMI)---4.0---2014-10-13',
'CAx-IF Rec.Pracs.---3D Tessellated Geometry---0.4---2014-09-14','2;1',
'CAx-IF Rec.Pracs.---User Defined Attributes---1.5---2016-08-15'),
/* implementation_level */ '2;1');

FILE_NAME(
/* name */ 'Part Studio 1 - Part 1',
/* time_stamp */ '2026-07-03T12:52:19Z',
/* author */ (''),
/* organization */ (''),
/* preprocessor_version */ 'ST-DEVELOPER v20',
/* originating_system */ 'ONSHAPE BY PTC INC, 1.217',
/* authorisation */ '  ');

FILE_SCHEMA (('AP242_MANAGED_MODEL_BASED_3D_ENGINEERING_MIM_LF { 1 0 10303 442 3 1 4 }'));
ENDSEC;

DATA;
#10=SHAPE_REPRESENTATION_RELATIONSHIP('','',#363,#11);
#11=ADVANCED_BREP_SHAPE_REPRESENTATION('',(#361),#577);
#12=CYLINDRICAL_SURFACE('',#375,0.00175);
#13=CYLINDRICAL_SURFACE('',#377,0.00175);
#14=CYLINDRICAL_SURFACE('',#383,0.00175);
#15=CYLINDRICAL_SURFACE('',#390,0.00175);
#16=CIRCLE('',#373,0.00175);
#17=CIRCLE('',#374,0.00175);
#18=CIRCLE('',#376,0.00175);
#19=CIRCLE('',#378,0.00175);
#20=CIRCLE('',#381,0.00175);
#21=CIRCLE('',#382,0.00175);
#22=CIRCLE('',#384,0.00175);
#23=CIRCLE('',#389,0.00175);
#24=ORIENTED_EDGE('',*,*,#112,.F.);
#25=ORIENTED_EDGE('',*,*,#113,.T.);
#26=ORIENTED_EDGE('',*,*,#114,.T.);
#27=ORIENTED_EDGE('',*,*,#115,.F.);
#28=ORIENTED_EDGE('',*,*,#116,.F.);
#29=ORIENTED_EDGE('',*,*,#117,.T.);
#30=ORIENTED_EDGE('',*,*,#118,.T.);
#31=ORIENTED_EDGE('',*,*,#119,.F.);
#32=ORIENTED_EDGE('',*,*,#120,.T.);
#33=ORIENTED_EDGE('',*,*,#121,.F.);
#34=ORIENTED_EDGE('',*,*,#122,.F.);
#35=ORIENTED_EDGE('',*,*,#123,.T.);
#36=ORIENTED_EDGE('',*,*,#124,.F.);
#37=ORIENTED_EDGE('',*,*,#125,.F.);
#38=ORIENTED_EDGE('',*,*,#126,.T.);
#39=ORIENTED_EDGE('',*,*,#114,.F.);
#40=ORIENTED_EDGE('',*,*,#127,.F.);
#41=ORIENTED_EDGE('',*,*,#128,.F.);
#42=ORIENTED_EDGE('',*,*,#122,.T.);
#43=ORIENTED_EDGE('',*,*,#129,.T.);
#44=ORIENTED_EDGE('',*,*,#130,.F.);
#45=ORIENTED_EDGE('',*,*,#119,.T.);
#46=ORIENTED_EDGE('',*,*,#131,.T.);
#47=ORIENTED_EDGE('',*,*,#132,.T.);
#48=ORIENTED_EDGE('',*,*,#124,.T.);
#49=ORIENTED_EDGE('',*,*,#133,.T.);
#50=ORIENTED_EDGE('',*,*,#134,.F.);
#51=ORIENTED_EDGE('',*,*,#135,.F.);
#52=ORIENTED_EDGE('',*,*,#134,.T.);
#53=ORIENTED_EDGE('',*,*,#136,.F.);
#54=ORIENTED_EDGE('',*,*,#137,.F.);
#55=ORIENTED_EDGE('',*,*,#117,.F.);
#56=ORIENTED_EDGE('',*,*,#138,.T.);
#57=ORIENTED_EDGE('',*,*,#139,.F.);
#58=ORIENTED_EDGE('',*,*,#120,.F.);
#59=ORIENTED_EDGE('',*,*,#140,.T.);
#60=ORIENTED_EDGE('',*,*,#141,.T.);
#61=ORIENTED_EDGE('',*,*,#112,.T.);
#62=ORIENTED_EDGE('',*,*,#142,.F.);
#63=ORIENTED_EDGE('',*,*,#143,.T.);
#64=ORIENTED_EDGE('',*,*,#118,.F.);
#65=ORIENTED_EDGE('',*,*,#137,.T.);
#66=ORIENTED_EDGE('',*,*,#144,.F.);
#67=ORIENTED_EDGE('',*,*,#131,.F.);
#68=ORIENTED_EDGE('',*,*,#145,.T.);
#69=ORIENTED_EDGE('',*,*,#146,.F.);
#70=ORIENTED_EDGE('',*,*,#144,.T.);
#71=ORIENTED_EDGE('',*,*,#136,.T.);
#72=ORIENTED_EDGE('',*,*,#133,.F.);
#73=ORIENTED_EDGE('',*,*,#132,.F.);
#74=ORIENTED_EDGE('',*,*,#145,.F.);
#75=ORIENTED_EDGE('',*,*,#147,.T.);
#76=ORIENTED_EDGE('',*,*,#146,.T.);
#77=ORIENTED_EDGE('',*,*,#148,.F.);
#78=ORIENTED_EDGE('',*,*,#138,.F.);
#79=ORIENTED_EDGE('',*,*,#116,.T.);
#80=ORIENTED_EDGE('',*,*,#130,.T.);
#81=ORIENTED_EDGE('',*,*,#149,.T.);
#82=ORIENTED_EDGE('',*,*,#121,.T.);
#83=ORIENTED_EDGE('',*,*,#139,.T.);
#84=ORIENTED_EDGE('',*,*,#149,.F.);
#85=ORIENTED_EDGE('',*,*,#129,.F.);
#86=ORIENTED_EDGE('',*,*,#150,.T.);
#87=ORIENTED_EDGE('',*,*,#151,.F.);
#88=ORIENTED_EDGE('',*,*,#150,.F.);
#89=ORIENTED_EDGE('',*,*,#152,.T.);
#90=ORIENTED_EDGE('',*,*,#142,.T.);
#91=ORIENTED_EDGE('',*,*,#115,.T.);
#92=ORIENTED_EDGE('',*,*,#126,.F.);
#93=ORIENTED_EDGE('',*,*,#153,.T.);
#94=ORIENTED_EDGE('',*,*,#147,.F.);
#95=ORIENTED_EDGE('',*,*,#148,.T.);
#96=ORIENTED_EDGE('',*,*,#153,.F.);
#97=ORIENTED_EDGE('',*,*,#125,.T.);
#98=ORIENTED_EDGE('',*,*,#135,.T.);
#99=ORIENTED_EDGE('',*,*,#143,.F.);
#100=ORIENTED_EDGE('',*,*,#113,.F.);
#101=ORIENTED_EDGE('',*,*,#141,.F.);
#102=ORIENTED_EDGE('',*,*,#154,.F.);
#103=ORIENTED_EDGE('',*,*,#127,.T.);
#104=ORIENTED_EDGE('',*,*,#123,.F.);
#105=ORIENTED_EDGE('',*,*,#128,.T.);
#106=ORIENTED_EDGE('',*,*,#154,.T.);
#107=ORIENTED_EDGE('',*,*,#140,.F.);
#108=ORIENTED_EDGE('',*,*,#152,.F.);
#109=ORIENTED_EDGE('',*,*,#155,.T.);
#110=ORIENTED_EDGE('',*,*,#151,.T.);
#111=ORIENTED_EDGE('',*,*,#155,.F.);
#112=EDGE_CURVE('',#156,#157,#188,.T.);
#113=EDGE_CURVE('',#156,#158,#189,.T.);
#114=EDGE_CURVE('',#158,#159,#190,.T.);
#115=EDGE_CURVE('',#157,#159,#191,.T.);
#116=EDGE_CURVE('',#160,#161,#192,.T.);
#117=EDGE_CURVE('',#160,#162,#193,.T.);
#118=EDGE_CURVE('',#162,#163,#194,.T.);
#119=EDGE_CURVE('',#161,#163,#195,.T.);
#120=EDGE_CURVE('',#164,#165,#196,.T.);
#121=EDGE_CURVE('',#166,#165,#197,.T.);
#122=EDGE_CURVE('',#167,#166,#198,.T.);
#123=EDGE_CURVE('',#167,#164,#199,.T.);
#124=EDGE_CURVE('',#168,#169,#200,.T.);
#125=EDGE_CURVE('',#170,#168,#201,.T.);
#126=EDGE_CURVE('',#170,#159,#202,.T.);
#127=EDGE_CURVE('',#171,#158,#203,.T.);
#128=EDGE_CURVE('',#167,#171,#204,.T.);
#129=EDGE_CURVE('',#166,#172,#205,.T.);
#130=EDGE_CURVE('',#161,#172,#206,.T.);
#131=EDGE_CURVE('',#163,#173,#207,.T.);
#132=EDGE_CURVE('',#173,#169,#208,.T.);
#133=EDGE_CURVE('',#169,#174,#209,.T.);
#134=EDGE_CURVE('',#175,#174,#210,.T.);
#135=EDGE_CURVE('',#168,#175,#211,.T.);
#136=EDGE_CURVE('',#176,#174,#212,.T.);
#137=EDGE_CURVE('',#162,#176,#213,.T.);
#138=EDGE_CURVE('',#160,#177,#214,.T.);
#139=EDGE_CURVE('',#165,#177,#215,.T.);
#140=EDGE_CURVE('',#164,#178,#216,.T.);
#141=EDGE_CURVE('',#178,#156,#217,.T.);
#142=EDGE_CURVE('',#179,#157,#218,.T.);
#143=EDGE_CURVE('',#179,#175,#219,.T.);
#144=EDGE_CURVE('',#173,#176,#220,.T.);
#145=EDGE_CURVE('',#180,#180,#16,.T.);
#146=EDGE_CURVE('',#181,#181,#17,.T.);
#147=EDGE_CURVE('',#182,#182,#18,.T.);
#148=EDGE_CURVE('',#183,#183,#19,.T.);
#149=EDGE_CURVE('',#172,#177,#221,.T.);
#150=EDGE_CURVE('',#184,#184,#20,.T.);
#151=EDGE_CURVE('',#185,#185,#21,.T.);
#152=EDGE_CURVE('',#186,#186,#22,.T.);
#153=EDGE_CURVE('',#170,#179,#222,.T.);
#154=EDGE_CURVE('',#171,#178,#223,.T.);
#155=EDGE_CURVE('',#187,#187,#23,.T.);
#156=VERTEX_POINT('',#484);
#157=VERTEX_POINT('',#485);
#158=VERTEX_POINT('',#487);
#159=VERTEX_POINT('',#489);
#160=VERTEX_POINT('',#493);
#161=VERTEX_POINT('',#494);
#162=VERTEX_POINT('',#496);
#163=VERTEX_POINT('',#498);
#164=VERTEX_POINT('',#502);
#165=VERTEX_POINT('',#503);
#166=VERTEX_POINT('',#505);
#167=VERTEX_POINT('',#507);
#168=VERTEX_POINT('',#511);
#169=VERTEX_POINT('',#512);
#170=VERTEX_POINT('',#514);
#171=VERTEX_POINT('',#517);
#172=VERTEX_POINT('',#520);
#173=VERTEX_POINT('',#523);
#174=VERTEX_POINT('',#527);
#175=VERTEX_POINT('',#529);
#176=VERTEX_POINT('',#533);
#177=VERTEX_POINT('',#536);
#178=VERTEX_POINT('',#539);
#179=VERTEX_POINT('',#542);
#180=VERTEX_POINT('',#548);
#181=VERTEX_POINT('',#550);
#182=VERTEX_POINT('',#553);
#183=VERTEX_POINT('',#556);
#184=VERTEX_POINT('',#561);
#185=VERTEX_POINT('',#563);
#186=VERTEX_POINT('',#566);
#187=VERTEX_POINT('',#574);
#188=LINE('',#483,#224);
#189=LINE('',#486,#225);
#190=LINE('',#488,#226);
#191=LINE('',#490,#227);
#192=LINE('',#492,#228);
#193=LINE('',#495,#229);
#194=LINE('',#497,#230);
#195=LINE('',#499,#231);
#196=LINE('',#501,#232);
#197=LINE('',#504,#233);
#198=LINE('',#506,#234);
#199=LINE('',#508,#235);
#200=LINE('',#510,#236);
#201=LINE('',#513,#237);
#202=LINE('',#515,#238);
#203=LINE('',#516,#239);
#204=LINE('',#518,#240);
#205=LINE('',#519,#241);
#206=LINE('',#521,#242);
#207=LINE('',#522,#243);
#208=LINE('',#524,#244);
#209=LINE('',#526,#245);
#210=LINE('',#528,#246);
#211=LINE('',#530,#247);
#212=LINE('',#532,#248);
#213=LINE('',#534,#249);
#214=LINE('',#535,#250);
#215=LINE('',#537,#251);
#216=LINE('',#538,#252);
#217=LINE('',#540,#253);
#218=LINE('',#541,#254);
#219=LINE('',#543,#255);
#220=LINE('',#545,#256);
#221=LINE('',#558,#257);
#222=LINE('',#568,#258);
#223=LINE('',#571,#259);
#224=VECTOR('',#395,1.);
#225=VECTOR('',#396,1.);
#226=VECTOR('',#397,1.);
#227=VECTOR('',#398,1.);
#228=VECTOR('',#401,1.);
#229=VECTOR('',#402,1.);
#230=VECTOR('',#403,1.);
#231=VECTOR('',#404,1.);
#232=VECTOR('',#407,1.);
#233=VECTOR('',#408,1.);
#234=VECTOR('',#409,1.);
#235=VECTOR('',#410,1.);
#236=VECTOR('',#413,1.);
#237=VECTOR('',#414,1.);
#238=VECTOR('',#415,1.);
#239=VECTOR('',#416,1.);
#240=VECTOR('',#417,1.);
#241=VECTOR('',#418,1.);
#242=VECTOR('',#419,1.);
#243=VECTOR('',#420,1.);
#244=VECTOR('',#421,1.);
#245=VECTOR('',#424,1.);
#246=VECTOR('',#425,1.);
#247=VECTOR('',#426,1.);
#248=VECTOR('',#429,1.);
#249=VECTOR('',#430,1.);
#250=VECTOR('',#431,1.);
#251=VECTOR('',#432,1.);
#252=VECTOR('',#433,1.);
#253=VECTOR('',#434,1.);
#254=VECTOR('',#435,1.);
#255=VECTOR('',#436,1.);
#256=VECTOR('',#439,1.);
#257=VECTOR('',#456,1.);
#258=VECTOR('',#469,1.);
#259=VECTOR('',#474,1.);
#260=EDGE_LOOP('',(#24,#25,#26,#27));
#261=EDGE_LOOP('',(#28,#29,#30,#31));
#262=EDGE_LOOP('',(#32,#33,#34,#35));
#263=EDGE_LOOP('',(#36,#37,#38,#39,#40,#41,#42,#43,#44,#45,#46,#47));
#264=EDGE_LOOP('',(#48,#49,#50,#51));
#265=EDGE_LOOP('',(#52,#53,#54,#55,#56,#57,#58,#59,#60,#61,#62,#63));
#266=EDGE_LOOP('',(#64,#65,#66,#67));
#267=EDGE_LOOP('',(#68));
#268=EDGE_LOOP('',(#69));
#269=EDGE_LOOP('',(#70,#71,#72,#73));
#270=EDGE_LOOP('',(#74));
#271=EDGE_LOOP('',(#75));
#272=EDGE_LOOP('',(#76));
#273=EDGE_LOOP('',(#77));
#274=EDGE_LOOP('',(#78,#79,#80,#81));
#275=EDGE_LOOP('',(#82,#83,#84,#85));
#276=EDGE_LOOP('',(#86));
#277=EDGE_LOOP('',(#87));
#278=EDGE_LOOP('',(#88));
#279=EDGE_LOOP('',(#89));
#280=EDGE_LOOP('',(#90,#91,#92,#93));
#281=EDGE_LOOP('',(#94));
#282=EDGE_LOOP('',(#95));
#283=EDGE_LOOP('',(#96,#97,#98,#99));
#284=EDGE_LOOP('',(#100,#101,#102,#103));
#285=EDGE_LOOP('',(#104,#105,#106,#107));
#286=EDGE_LOOP('',(#108));
#287=EDGE_LOOP('',(#109));
#288=EDGE_LOOP('',(#110));
#289=EDGE_LOOP('',(#111));
#290=FACE_BOUND('',#260,.T.);
#291=FACE_BOUND('',#261,.T.);
#292=FACE_BOUND('',#262,.T.);
#293=FACE_BOUND('',#263,.T.);
#294=FACE_BOUND('',#264,.T.);
#295=FACE_BOUND('',#265,.T.);
#296=FACE_BOUND('',#266,.T.);
#297=FACE_BOUND('',#267,.T.);
#298=FACE_BOUND('',#268,.T.);
#299=FACE_BOUND('',#269,.T.);
#300=FACE_BOUND('',#270,.T.);
#301=FACE_BOUND('',#271,.T.);
#302=FACE_BOUND('',#272,.T.);
#303=FACE_BOUND('',#273,.T.);
#304=FACE_BOUND('',#274,.T.);
#305=FACE_BOUND('',#275,.T.);
#306=FACE_BOUND('',#276,.T.);
#307=FACE_BOUND('',#277,.T.);
#308=FACE_BOUND('',#278,.T.);
#309=FACE_BOUND('',#279,.T.);
#310=FACE_BOUND('',#280,.T.);
#311=FACE_BOUND('',#281,.T.);
#312=FACE_BOUND('',#282,.T.);
#313=FACE_BOUND('',#283,.T.);
#314=FACE_BOUND('',#284,.T.);
#315=FACE_BOUND('',#285,.T.);
#316=FACE_BOUND('',#286,.T.);
#317=FACE_BOUND('',#287,.T.);
#318=FACE_BOUND('',#288,.T.);
#319=FACE_BOUND('',#289,.T.);
#320=PLANE('',#365);
#321=PLANE('',#366);
#322=PLANE('',#367);
#323=PLANE('',#368);
#324=PLANE('',#369);
#325=PLANE('',#370);
#326=PLANE('',#371);
#327=PLANE('',#372);
#328=PLANE('',#379);
#329=PLANE('',#380);
#330=PLANE('',#385);
#331=PLANE('',#386);
#332=PLANE('',#387);
#333=PLANE('',#388);
#334=ADVANCED_FACE('',(#290),#320,.T.);
#335=ADVANCED_FACE('',(#291),#321,.F.);
#336=ADVANCED_FACE('',(#292),#322,.T.);
#337=ADVANCED_FACE('',(#293),#323,.F.);
#338=ADVANCED_FACE('',(#294),#324,.F.);
#339=ADVANCED_FACE('',(#295),#325,.T.);
#340=ADVANCED_FACE('',(#296),#326,.T.);
#341=ADVANCED_FACE('',(#297,#298,#299),#327,.F.);
#342=ADVANCED_FACE('',(#300,#301),#12,.F.);
#343=ADVANCED_FACE('',(#302,#303),#13,.F.);
#344=ADVANCED_FACE('',(#304),#328,.F.);
#345=ADVANCED_FACE('',(#305,#306,#307),#329,.F.);
#346=ADVANCED_FACE('',(#308,#309),#14,.F.);
#347=ADVANCED_FACE('',(#310),#330,.T.);
#348=ADVANCED_FACE('',(#311,#312,#313),#331,.T.);
#349=ADVANCED_FACE('',(#314),#332,.F.);
#350=ADVANCED_FACE('',(#315,#316,#317),#333,.T.);
#351=ADVANCED_FACE('',(#318,#319),#15,.F.);
#352=CLOSED_SHELL('',(#334,#335,#336,#337,#338,#339,#340,#341,#342,#343,
#344,#345,#346,#347,#348,#349,#350,#351));
#353=STYLED_ITEM('',(#354),#361);
#354=PRESENTATION_STYLE_ASSIGNMENT((#355));
#355=SURFACE_STYLE_USAGE(.BOTH.,#356);
#356=SURFACE_SIDE_STYLE('',(#357));
#357=SURFACE_STYLE_FILL_AREA(#358);
#358=FILL_AREA_STYLE('',(#359));
#359=FILL_AREA_STYLE_COLOUR('',#360);
#360=COLOUR_RGB('',0.615686274509804,0.811764705882353,0.929411764705882);
#361=MANIFOLD_SOLID_BREP('Part 1',#352);
#362=SHAPE_DEFINITION_REPRESENTATION(#582,#363);
#363=SHAPE_REPRESENTATION('Part 1',(#364),#577);
#364=AXIS2_PLACEMENT_3D('',#481,#391,#392);
#365=AXIS2_PLACEMENT_3D('',#482,#393,#394);
#366=AXIS2_PLACEMENT_3D('',#491,#399,#400);
#367=AXIS2_PLACEMENT_3D('',#500,#405,#406);
#368=AXIS2_PLACEMENT_3D('',#509,#411,#412);
#369=AXIS2_PLACEMENT_3D('',#525,#422,#423);
#370=AXIS2_PLACEMENT_3D('',#531,#427,#428);
#371=AXIS2_PLACEMENT_3D('',#544,#437,#438);
#372=AXIS2_PLACEMENT_3D('',#546,#440,#441);
#373=AXIS2_PLACEMENT_3D('',#547,#442,#443);
#374=AXIS2_PLACEMENT_3D('',#549,#444,#445);
#375=AXIS2_PLACEMENT_3D('',#551,#446,#447);
#376=AXIS2_PLACEMENT_3D('',#552,#448,#449);
#377=AXIS2_PLACEMENT_3D('',#554,#450,#451);
#378=AXIS2_PLACEMENT_3D('',#555,#452,#453);
#379=AXIS2_PLACEMENT_3D('',#557,#454,#455);
#380=AXIS2_PLACEMENT_3D('',#559,#457,#458);
#381=AXIS2_PLACEMENT_3D('',#560,#459,#460);
#382=AXIS2_PLACEMENT_3D('',#562,#461,#462);
#383=AXIS2_PLACEMENT_3D('',#564,#463,#464);
#384=AXIS2_PLACEMENT_3D('',#565,#465,#466);
#385=AXIS2_PLACEMENT_3D('',#567,#467,#468);
#386=AXIS2_PLACEMENT_3D('',#569,#470,#471);
#387=AXIS2_PLACEMENT_3D('',#570,#472,#473);
#388=AXIS2_PLACEMENT_3D('',#572,#475,#476);
#389=AXIS2_PLACEMENT_3D('',#573,#477,#478);
#390=AXIS2_PLACEMENT_3D('',#575,#479,#480);
#391=DIRECTION('',(0.,0.,1.));
#392=DIRECTION('',(1.,0.,0.));
#393=DIRECTION('',(0.,-1.,0.));
#394=DIRECTION('',(1.,0.,0.));
#395=DIRECTION('',(-1.,0.,0.));
#396=DIRECTION('',(0.,0.,1.));
#397=DIRECTION('',(-1.,0.,0.));
#398=DIRECTION('',(0.,0.,1.));
#399=DIRECTION('',(0.,-1.,0.));
#400=DIRECTION('',(1.,0.,0.));
#401=DIRECTION('',(0.,0.,1.));
#402=DIRECTION('',(-1.,0.,0.));
#403=DIRECTION('',(0.,0.,1.));
#404=DIRECTION('',(-1.,0.,0.));
#405=DIRECTION('',(1.,0.,0.));
#406=DIRECTION('',(0.,0.,-1.));
#407=DIRECTION('',(0.,1.,0.));
#408=DIRECTION('',(0.,0.,-1.));
#409=DIRECTION('',(0.,1.,0.));
#410=DIRECTION('',(0.,0.,-1.));
#411=DIRECTION('',(0.,0.,-1.));
#412=DIRECTION('',(-1.,0.,0.));
#413=DIRECTION('',(0.,1.,0.));
#414=DIRECTION('',(-1.,0.,0.));
#415=DIRECTION('',(0.,1.,0.));
#416=DIRECTION('',(0.,1.,0.));
#417=DIRECTION('',(-1.,0.,0.));
#418=DIRECTION('',(-1.,0.,0.));
#419=DIRECTION('',(0.,1.,0.));
#420=DIRECTION('',(0.,1.,0.));
#421=DIRECTION('',(-1.,0.,0.));
#422=DIRECTION('',(1.,0.,0.));
#423=DIRECTION('',(0.,0.,-1.));
#424=DIRECTION('',(0.,0.,-1.));
#425=DIRECTION('',(0.,1.,0.));
#426=DIRECTION('',(0.,0.,-1.));
#427=DIRECTION('',(0.,0.,-1.));
#428=DIRECTION('',(-1.,0.,0.));
#429=DIRECTION('',(-1.,0.,0.));
#430=DIRECTION('',(0.,1.,0.));
#431=DIRECTION('',(0.,1.,0.));
#432=DIRECTION('',(-1.,0.,0.));
#433=DIRECTION('',(-1.,0.,0.));
#434=DIRECTION('',(0.,1.,0.));
#435=DIRECTION('',(0.,1.,0.));
#436=DIRECTION('',(-1.,0.,0.));
#437=DIRECTION('',(1.,0.,0.));
#438=DIRECTION('',(0.,0.,-1.));
#439=DIRECTION('',(0.,0.,-1.));
#440=DIRECTION('',(0.,-1.,0.));
#441=DIRECTION('',(1.,0.,0.));
#442=DIRECTION('',(0.,-1.,0.));
#443=DIRECTION('',(0.,0.,-1.));
#444=DIRECTION('',(0.,1.,0.));
#445=DIRECTION('',(0.,0.,-1.));
#446=DIRECTION('',(0.,1.,0.));
#447=DIRECTION('',(0.,0.,1.));
#448=DIRECTION('',(0.,-1.,0.));
#449=DIRECTION('',(0.,0.,-1.));
#450=DIRECTION('',(0.,1.,0.));
#451=DIRECTION('',(0.,0.,1.));
#452=DIRECTION('',(0.,1.,0.));
#453=DIRECTION('',(0.,0.,-1.));
#454=DIRECTION('',(1.,0.,0.));
#455=DIRECTION('',(0.,0.,-1.));
#456=DIRECTION('',(0.,0.,-1.));
#457=DIRECTION('',(0.,-1.,0.));
#458=DIRECTION('',(1.,0.,0.));
#459=DIRECTION('',(0.,-1.,0.));
#460=DIRECTION('',(0.,0.,-1.));
#461=DIRECTION('',(0.,1.,0.));
#462=DIRECTION('',(0.,0.,-1.));
#463=DIRECTION('',(0.,1.,0.));
#464=DIRECTION('',(0.,0.,1.));
#465=DIRECTION('',(0.,-1.,0.));
#466=DIRECTION('',(0.,0.,-1.));
#467=DIRECTION('',(1.,0.,0.));
#468=DIRECTION('',(0.,0.,-1.));
#469=DIRECTION('',(0.,0.,-1.));
#470=DIRECTION('',(0.,-1.,0.));
#471=DIRECTION('',(1.,0.,0.));
#472=DIRECTION('',(1.,0.,0.));
#473=DIRECTION('',(0.,0.,-1.));
#474=DIRECTION('',(0.,0.,-1.));
#475=DIRECTION('',(0.,-1.,0.));
#476=DIRECTION('',(1.,0.,0.));
#477=DIRECTION('',(0.,1.,0.));
#478=DIRECTION('',(0.,0.,-1.));
#479=DIRECTION('',(0.,1.,0.));
#480=DIRECTION('',(0.,0.,1.));
#481=CARTESIAN_POINT('',(0.,0.,0.));
#482=CARTESIAN_POINT('',(0.,-0.0005,-6.93889390390723E-18));
#483=CARTESIAN_POINT('',(0.0575,-0.0005,-0.01));
#484=CARTESIAN_POINT('',(0.05,-0.0005,-0.01));
#485=CARTESIAN_POINT('',(-0.05,-0.0005,-0.01));
#486=CARTESIAN_POINT('',(0.05,-0.0005,-6.93889390390723E-18));
#487=CARTESIAN_POINT('',(0.05,-0.0005,0.01));
#488=CARTESIAN_POINT('',(0.0575,-0.0005,0.01));
#489=CARTESIAN_POINT('',(-0.05,-0.0005,0.01));
#490=CARTESIAN_POINT('',(-0.05,-0.0005,-6.93889390390723E-18));
#491=CARTESIAN_POINT('',(0.,0.0005,-6.93889390390723E-18));
#492=CARTESIAN_POINT('',(0.05,0.0005,-6.93889390390723E-18));
#493=CARTESIAN_POINT('',(0.05,0.0005,-0.01));
#494=CARTESIAN_POINT('',(0.05,0.0005,0.01));
#495=CARTESIAN_POINT('',(0.0575,0.0005,-0.01));
#496=CARTESIAN_POINT('',(-0.05,0.0005,-0.01));
#497=CARTESIAN_POINT('',(-0.05,0.0005,-6.93889390390723E-18));
#498=CARTESIAN_POINT('',(-0.05,0.0005,0.01));
#499=CARTESIAN_POINT('',(0.0575,0.0005,0.01));
#500=CARTESIAN_POINT('',(0.065,-0.0005,8.67361737988404E-19));
#501=CARTESIAN_POINT('',(0.065,-0.0005,-0.01));
#502=CARTESIAN_POINT('',(0.065,-0.001,-0.01));
#503=CARTESIAN_POINT('',(0.065,0.001,-0.01));
#504=CARTESIAN_POINT('',(0.065,0.001,8.67361737988404E-19));
#505=CARTESIAN_POINT('',(0.065,0.001,0.01));
#506=CARTESIAN_POINT('',(0.065,-0.0005,0.01));
#507=CARTESIAN_POINT('',(0.065,-0.001,0.01));
#508=CARTESIAN_POINT('',(0.065,-0.001,8.67361737988404E-19));
#509=CARTESIAN_POINT('',(0.0575,-0.0005,0.01));
#510=CARTESIAN_POINT('',(-0.065,-0.0005,0.01));
#511=CARTESIAN_POINT('',(-0.065,-0.001,0.01));
#512=CARTESIAN_POINT('',(-0.065,0.001,0.01));
#513=CARTESIAN_POINT('',(-0.0575,-0.001,0.01));
#514=CARTESIAN_POINT('',(-0.05,-0.001,0.01));
#515=CARTESIAN_POINT('',(-0.05,-0.001,0.01));
#516=CARTESIAN_POINT('',(0.05,-0.001,0.01));
#517=CARTESIAN_POINT('',(0.05,-0.001,0.01));
#518=CARTESIAN_POINT('',(0.0575,-0.001,0.01));
#519=CARTESIAN_POINT('',(0.0575,0.001,0.01));
#520=CARTESIAN_POINT('',(0.05,0.001,0.01));
#521=CARTESIAN_POINT('',(0.05,-0.001,0.01));
#522=CARTESIAN_POINT('',(-0.05,-0.001,0.01));
#523=CARTESIAN_POINT('',(-0.05,0.001,0.01));
#524=CARTESIAN_POINT('',(-0.0575,0.001,0.01));
#525=CARTESIAN_POINT('',(-0.065,-0.0005,-3.46944695195361E-18));
#526=CARTESIAN_POINT('',(-0.065,0.001,-3.46944695195361E-18));
#527=CARTESIAN_POINT('',(-0.065,0.001,-0.01));
#528=CARTESIAN_POINT('',(-0.065,-0.0005,-0.01));
#529=CARTESIAN_POINT('',(-0.065,-0.001,-0.01));
#530=CARTESIAN_POINT('',(-0.065,-0.001,-3.46944695195361E-18));
#531=CARTESIAN_POINT('',(0.0575,-0.0005,-0.01));
#532=CARTESIAN_POINT('',(-0.0575,0.001,-0.01));
#533=CARTESIAN_POINT('',(-0.05,0.001,-0.01));
#534=CARTESIAN_POINT('',(-0.05,-0.001,-0.01));
#535=CARTESIAN_POINT('',(0.05,-0.001,-0.01));
#536=CARTESIAN_POINT('',(0.05,0.001,-0.01));
#537=CARTESIAN_POINT('',(0.0575,0.001,-0.01));
#538=CARTESIAN_POINT('',(0.0575,-0.001,-0.01));
#539=CARTESIAN_POINT('',(0.05,-0.001,-0.01));
#540=CARTESIAN_POINT('',(0.05,-0.001,-0.01));
#541=CARTESIAN_POINT('',(-0.05,-0.001,-0.01));
#542=CARTESIAN_POINT('',(-0.05,-0.001,-0.01));
#543=CARTESIAN_POINT('',(-0.0575,-0.001,-0.01));
#544=CARTESIAN_POINT('',(-0.05,-0.001,0.));
#545=CARTESIAN_POINT('',(-0.05,0.001,0.));
#546=CARTESIAN_POINT('',(0.,0.001,-6.93889390390723E-18));
#547=CARTESIAN_POINT('',(-0.055,0.001,0.005));
#548=CARTESIAN_POINT('',(-0.055,0.001,0.00325));
#549=CARTESIAN_POINT('',(-0.055,0.001,-0.005));
#550=CARTESIAN_POINT('',(-0.055,0.001,-0.00675));
#551=CARTESIAN_POINT('',(-0.055,-0.0005,0.005));
#552=CARTESIAN_POINT('',(-0.055,-0.001,0.005));
#553=CARTESIAN_POINT('',(-0.055,-0.001,0.00325));
#554=CARTESIAN_POINT('',(-0.055,-0.0005,-0.005));
#555=CARTESIAN_POINT('',(-0.055,-0.001,-0.005));
#556=CARTESIAN_POINT('',(-0.055,-0.001,-0.00675));
#557=CARTESIAN_POINT('',(0.05,-0.001,-1.21430643318376E-17));
#558=CARTESIAN_POINT('',(0.05,0.001,-1.21430643318376E-17));
#559=CARTESIAN_POINT('',(0.,0.001,-6.93889390390723E-18));
#560=CARTESIAN_POINT('',(0.055,0.001,-0.005));
#561=CARTESIAN_POINT('',(0.055,0.001,-0.00675));
#562=CARTESIAN_POINT('',(0.055,0.001,0.005));
#563=CARTESIAN_POINT('',(0.055,0.001,0.00325));
#564=CARTESIAN_POINT('',(0.055,-0.0005,-0.005));
#565=CARTESIAN_POINT('',(0.055,-0.001,-0.005));
#566=CARTESIAN_POINT('',(0.055,-0.001,-0.00675));
#567=CARTESIAN_POINT('',(-0.05,-0.001,0.));
#568=CARTESIAN_POINT('',(-0.05,-0.001,0.));
#569=CARTESIAN_POINT('',(0.,-0.001,-6.93889390390723E-18));
#570=CARTESIAN_POINT('',(0.05,-0.001,-1.21430643318376E-17));
#571=CARTESIAN_POINT('',(0.05,-0.001,-1.21430643318376E-17));
#572=CARTESIAN_POINT('',(0.,-0.001,-6.93889390390723E-18));
#573=CARTESIAN_POINT('',(0.055,-0.001,0.005));
#574=CARTESIAN_POINT('',(0.055,-0.001,0.00325));
#575=CARTESIAN_POINT('',(0.055,-0.0005,0.005));
#576=MECHANICAL_DESIGN_GEOMETRIC_PRESENTATION_REPRESENTATION('',(#353),
#577);
#577=(
GEOMETRIC_REPRESENTATION_CONTEXT(3)
GLOBAL_UNCERTAINTY_ASSIGNED_CONTEXT((#578))
GLOBAL_UNIT_ASSIGNED_CONTEXT((#581,#580,#579))
REPRESENTATION_CONTEXT('Part 1','TOP_LEVEL_ASSEMBLY_PART')
);
#578=UNCERTAINTY_MEASURE_WITH_UNIT(LENGTH_MEASURE(1.E-8),#581,
'DISTANCE_ACCURACY_VALUE','Maximum Tolerance applied to model');
#579=(
NAMED_UNIT(*)
SI_UNIT($,.STERADIAN.)
SOLID_ANGLE_UNIT()
);
#580=(
NAMED_UNIT(*)
PLANE_ANGLE_UNIT()
SI_UNIT($,.RADIAN.)
);
#581=(
LENGTH_UNIT()
NAMED_UNIT(*)
SI_UNIT($,.METRE.)
);
#582=PRODUCT_DEFINITION_SHAPE('','',#583);
#583=PRODUCT_DEFINITION('','',#585,#584);
#584=PRODUCT_DEFINITION_CONTEXT('',#591,'design');
#585=PRODUCT_DEFINITION_FORMATION_WITH_SPECIFIED_SOURCE('','',#587,
 .NOT_KNOWN.);
#586=PRODUCT_RELATED_PRODUCT_CATEGORY('','',(#587));
#587=PRODUCT('Part 1','Part 1','Part 1',(#589));
#588=PRODUCT_CATEGORY('','');
#589=PRODUCT_CONTEXT('',#591,'mechanical');
#590=APPLICATION_PROTOCOL_DEFINITION('international standard',
'ap242_managed_model_based_3d_engineering',2020,#591);
#591=APPLICATION_CONTEXT('managed model based 3d engineering');
ENDSEC;
END-ISO-10303-21;
